<?xml version="1.0" encoding="UTF-8" standalone="no"?>
<svg
   version="1.1"
   viewBox="0 0 512 512"
   id="svg70"
   sodipodi:docname="app-logo.svg"
   width="512"
   height="512"
   inkscape:export-filename="pokeball.ico"
   inkscape:export-xdpi="96"
   inkscape:export-ydpi="96"
   inkscape:version="1.2.1 (9c6d41e410, 2022-07-14)"
   xmlns:inkscape="http://www.inkscape.org/namespaces/inkscape"
   xmlns:sodipodi="http://sodipodi.sourceforge.net/DTD/sodipodi-0.dtd"
   xmlns="http://www.w3.org/2000/svg"
   xmlns:svg="http://www.w3.org/2000/svg">
  <defs
     id="defs74" />
  <sodipodi:namedview
     id="namedview72"
     pagecolor="#ffffff"
     bordercolor="#000000"
     borderopacity="0.25"
     inkscape:showpageshadow="2"
     inkscape:pageopacity="0.0"
     inkscape:pagecheckerboard="0"
     inkscape:deskcolor="#d1d1d1"
     showgrid="false"
     inkscape:zoom="0.99584205"
     inkscape:cx="451.3768"
     inkscape:cy="359.49476"
     inkscape:window-width="1856"
     inkscape:window-height="1011"
     inkscape:window-x="0"
     inkscape:window-y="32"
     inkscape:window-maximized="1"
     inkscape:current-layer="svg70" />
  <g
     id="g390"
     transform="matrix(1.653524,0,0,1.653524,-406.16244,-245.4744)">
    <g
       stroke-width="2"
       fill="none"
       stroke-linecap="butt"
       id="g40">
      <path
         stroke="#878e9f"
         vector-effect="non-scaling-stroke"
         d="m 262.5,298.46 v 9.55 q 0,0.54 -0.54,0.5 c -3.25,-0.26 -4.01,1.88 -3.93,4.78 1.98,70.79 56.09,124.76 125.01,133.06 81.91,9.85 157.7,-49.28 159.93,-133.26 0.08,-3.05 -1.1,-5.02 -4.39,-4.56 Q 538,308.61 538,308.02 v -9.54 q 0,-0.59 0.59,-0.52 c 3.73,0.48 4.51,-1.97 4.39,-5.22 C 538.56,167.92 383.41,115.91 298.09,200.58 q -38.58,38.29 -40.17,93.66 -0.11,3.93 4,3.68 a 0.55,0.54 -1.5 0 1 0.58,0.54"
         id="path2" />
      <path
         stroke="#90617b"
         vector-effect="non-scaling-stroke"
         d="m 377.21,167.02 c -62.49,10.63 -110.38,59.92 -113.08,124.37 q -0.02,0.53 0.51,0.53 l 4.5,0.04"
         id="path4" />
      <path
         stroke="#8e1845"
         vector-effect="non-scaling-stroke"
         d="m 269.14,291.96 h 80.64 a 0.68,0.67 -82 0 0 0.65,-0.5 c 14.27,-52.09 86.97,-52.42 100.14,0.16 a 0.5,0.48 -6.7 0 0 0.48,0.37 h 59.05"
         id="path6" />
      <path
         stroke="#7f1841"
         vector-effect="non-scaling-stroke"
         d="m 510.1,291.99 h 26.01 a 0.8,0.8 0 0 0 0.8,-0.83 C 534,223.53 481.8,174.05 416.05,165.89 q -2.09,-0.26 -3.59,0.07"
         id="path8" />
      <path
         stroke="#8e1845"
         vector-effect="non-scaling-stroke"
         d="m 412.46,165.96 q -17.07,-2.22 -35.25,1.06"
         id="path10" />
      <path
         stroke="#e70b47"
         vector-effect="non-scaling-stroke"
         d="m 412.46,165.96 c 56.6,17.99 96.04,65.9 97.64,126.03"
         id="path12" />
      <path
         stroke="#f95480"
         vector-effect="non-scaling-stroke"
         d="m 269.14,291.96 c 2.42,-60.4 46.65,-109.09 103.88,-123.57 1.15,-0.29 3.28,-0.1 4.19,-1.37"
         id="path14" />
      <path
         stroke="#8d8d9a"
         vector-effect="non-scaling-stroke"
         d="m 435.88,303.49 a 35.39,35.39 0 0 0 -35.39,-35.39 35.39,35.39 0 0 0 -35.39,35.39 35.39,35.39 0 0 0 35.39,35.39 35.39,35.39 0 0 0 35.39,-35.39"
         id="path16" />
      <path
         stroke="#878e9f"
         vector-effect="non-scaling-stroke"
         d="m 353.78,433.63 c 51.73,17.5 108.28,5.04 146.51,-33.7 21.86,-22.15 36.11,-53.06 36.49,-84.63 q 0.01,-0.53 -0.53,-0.53 h -26.96"
         id="path18" />
      <path
         stroke="#8d8d9a"
         vector-effect="non-scaling-stroke"
         d="m 509.29,314.77 h -58 q -0.51,0 -0.64,0.49 c -14.24,52.71 -85.68,52.6 -100.12,0.31 Q 350.37,315 349.78,315 h -85.03 q -0.52,0 -0.5,0.52 c 1.72,54.92 38.41,99.72 89.53,118.11"
         id="path20" />
      <path
         stroke="#eff6fa"
         vector-effect="non-scaling-stroke"
         d="m 509.29,314.77 c -10.02,75.58 -78.52,125.25 -153.66,117.94 q -0.46,-0.04 -0.84,0.22 l -1.01,0.7"
         id="path22" />
      <path
         stroke="#f95480"
         vector-effect="non-scaling-stroke"
         d="m 299.48,257.25 c 4.46,3.07 12.15,-4.84 15.3,-8.26 Q 332.29,230 338.79,224.55 c 10.91,-9.14 20.67,-14.33 35.19,-22.33 13.13,-7.24 1.26,-12.98 -6.51,-13.13 -28.7,-0.55 -52.23,16.43 -66.03,40.61 -3.73,6.53 -10.27,21.85 -1.96,27.55"
         id="path24" />
      <path
         stroke="#f95480"
         vector-effect="non-scaling-stroke"
         d="m 299.02,270.49 a 5.5,5.5 0 0 0 -5.5,-5.5 5.5,5.5 0 0 0 -5.5,5.5 5.5,5.5 0 0 0 5.5,5.5 5.5,5.5 0 0 0 5.5,-5.5"
         id="path26" />
      <path
         stroke="#eff6fa"
         vector-effect="non-scaling-stroke"
         d="m 381.34,316.42 q 3.45,12.04 15.65,15.1 c 15.05,3.77 30.16,-7.14 29.22,-23.27 q -0.23,-3.83 -1.76,-6.78"
         id="path28" />
      <path
         stroke="#8d8d9a"
         vector-effect="non-scaling-stroke"
         d="m 424.45,301.47 c -1.68,-10.98 -9.31,-18.95 -20.13,-20.64 -20.41,-3.17 -32.88,18.62 -22.98,35.59"
         id="path30" />
      <path
         stroke="#878e9f"
         vector-effect="non-scaling-stroke"
         d="m 424.45,301.47 c 0.36,11.3 -5.61,20.06 -16.29,23.69 q -14.66,4.97 -26.82,-8.74"
         id="path32" />
      <path
         stroke="#878e9f"
         vector-effect="non-scaling-stroke"
         d="m 389.09,315.83 c 21.36,16.44 41.9,-15.65 19.99,-27.22"
         id="path34" />
      <path
         stroke="#8d8d9a"
         vector-effect="non-scaling-stroke"
         d="m 409.08,288.61 c -17.9,-8.26 -34.67,13.18 -19.99,27.22"
         id="path36" />
      <path
         stroke="#eff6fa"
         vector-effect="non-scaling-stroke"
         d="m 409.08,288.61 q 3.29,23.39 -19.99,27.22"
         id="path38" />
    </g>
    <path
       fill="#25253f"
       d="m 261.92,297.92 q -4.11,0.25 -4,-3.68 1.59,-55.37 40.17,-93.66 c 85.32,-84.67 240.47,-32.66 244.89,92.16 0.12,3.25 -0.66,5.7 -4.39,5.22 Q 538,297.89 538,298.48 v 9.54 q 0,0.59 0.58,0.51 c 3.29,-0.46 4.47,1.51 4.39,4.56 -2.23,83.98 -78.02,143.11 -159.93,133.26 -68.92,-8.3 -123.03,-62.27 -125.01,-133.06 -0.08,-2.9 0.68,-5.04 3.93,-4.78 q 0.54,0.04 0.54,-0.5 v -9.55 a 0.55,0.54 -1.5 0 0 -0.58,-0.54 z m 115.29,-130.9 c -62.49,10.63 -110.38,59.92 -113.08,124.37 q -0.02,0.53 0.51,0.53 l 4.5,0.04 h 80.64 a 0.68,0.67 -82 0 0 0.65,-0.5 c 14.27,-52.09 86.97,-52.42 100.14,0.16 a 0.5,0.48 -6.7 0 0 0.48,0.37 h 59.05 26.01 a 0.8,0.8 0 0 0 0.8,-0.83 C 534,223.53 481.8,174.05 416.05,165.89 q -2.09,-0.26 -3.59,0.07 -17.07,-2.22 -35.25,1.06 z m 58.67,136.47 a 35.39,35.39 0 0 0 -35.39,-35.39 35.39,35.39 0 0 0 -35.39,35.39 35.39,35.39 0 0 0 35.39,35.39 35.39,35.39 0 0 0 35.39,-35.39 z m -82.1,130.14 c 51.73,17.5 108.28,5.04 146.51,-33.7 21.86,-22.15 36.11,-53.06 36.49,-84.63 q 0.01,-0.53 -0.53,-0.53 h -26.96 -58 q -0.51,0 -0.64,0.49 c -14.24,52.71 -85.68,52.6 -100.12,0.31 Q 350.37,315 349.78,315 h -85.03 q -0.52,0 -0.5,0.52 c 1.72,54.92 38.41,99.72 89.53,118.11 z"
       id="path44" />
    <path
       fill="#f60a4a"
       d="m 412.46,165.96 c 56.6,17.99 96.04,65.9 97.64,126.03 h -59.05 a 0.5,0.48 -6.7 0 1 -0.48,-0.37 C 437.4,239.04 364.7,239.37 350.43,291.46 a 0.68,0.67 -82 0 1 -0.65,0.5 h -80.64 c 2.42,-60.4 46.65,-109.09 103.88,-123.57 1.15,-0.29 3.28,-0.1 4.19,-1.37 q 18.18,-3.28 35.25,-1.06 z m -112.98,91.29 c 4.46,3.07 12.15,-4.84 15.3,-8.26 Q 332.29,230 338.79,224.55 c 10.91,-9.14 20.67,-14.33 35.19,-22.33 13.13,-7.24 1.26,-12.98 -6.51,-13.13 -28.7,-0.55 -52.23,16.43 -66.03,40.61 -3.73,6.53 -10.27,21.85 -1.96,27.55 z m -0.46,13.24 a 5.5,5.5 0 0 0 -5.5,-5.5 5.5,5.5 0 0 0 -5.5,5.5 5.5,5.5 0 0 0 5.5,5.5 5.5,5.5 0 0 0 5.5,-5.5 z"
       id="path46" />
    <path
       fill="#d80b43"
       d="m 412.46,165.96 q 1.5,-0.33 3.59,-0.07 c 65.75,8.16 117.95,57.64 120.86,125.27 a 0.8,0.8 0 0 1 -0.8,0.83 H 510.1 C 508.5,231.86 469.06,183.95 412.46,165.96 Z"
       id="path48" />
    <path
       fill="#fb9db6"
       d="m 377.21,167.02 c -0.91,1.27 -3.04,1.08 -4.19,1.37 -57.23,14.48 -101.46,63.17 -103.88,123.57 l -4.5,-0.04 q -0.53,0 -0.51,-0.53 c 2.7,-64.45 50.59,-113.74 113.08,-124.37 z"
       id="path50" />
    <path
       fill="#fb9db6"
       d="m 299.48,257.25 c -8.31,-5.7 -1.77,-21.02 1.96,-27.55 13.8,-24.18 37.33,-41.16 66.03,-40.61 7.77,0.15 19.64,5.89 6.51,13.13 -14.52,8 -24.28,13.19 -35.19,22.33 q -6.5,5.45 -24.01,24.44 c -3.15,3.42 -10.84,11.33 -15.3,8.26 z"
       id="path52" />
    <circle
       fill="#fb9db6"
       cx="293.51999"
       cy="270.48999"
       r="5.5"
       id="circle54" />
    <path
       fill="#f5f5f5"
       d="m 435.88,303.49 a 35.39,35.39 0 0 1 -35.39,35.39 35.39,35.39 0 0 1 -35.39,-35.39 35.39,35.39 0 0 1 35.39,-35.39 35.39,35.39 0 0 1 35.39,35.39 z m -54.54,12.93 q 3.45,12.04 15.65,15.1 c 15.05,3.77 30.16,-7.14 29.22,-23.27 q -0.23,-3.83 -1.76,-6.78 c -1.68,-10.98 -9.31,-18.95 -20.13,-20.64 -20.41,-3.17 -32.88,18.62 -22.98,35.59 z"
       id="path56" />
    <path
       fill="#25253f"
       d="m 424.45,301.47 c 0.36,11.3 -5.61,20.06 -16.29,23.69 q -14.66,4.97 -26.82,-8.74 c -9.9,-16.97 2.57,-38.76 22.98,-35.59 10.82,1.69 18.45,9.66 20.13,20.64 z m -35.36,14.36 c 21.36,16.44 41.9,-15.65 19.99,-27.22 -17.9,-8.26 -34.67,13.18 -19.99,27.22 z"
       id="path58" />
    <path
       fill="#f5f5f5"
       d="m 409.08,288.61 q 3.29,23.39 -19.99,27.22 c -14.68,-14.04 2.09,-35.48 19.99,-27.22 z"
       id="path60" />
    <path
       fill="#e9f7ff"
       d="m 409.08,288.61 c 21.91,11.57 1.37,43.66 -19.99,27.22 q 23.28,-3.83 19.99,-27.22 z"
       id="path62" />
    <path
       fill="#e9f7ff"
       d="m 424.45,301.47 q 1.53,2.95 1.76,6.78 c 0.94,16.13 -14.17,27.04 -29.22,23.27 q -12.2,-3.06 -15.65,-15.1 12.16,13.71 26.82,8.74 c 10.68,-3.63 16.65,-12.39 16.29,-23.69 z"
       id="path64" />
    <path
       fill="#f5f5f5"
       d="m 509.29,314.77 c -10.02,75.58 -78.52,125.25 -153.66,117.94 q -0.46,-0.04 -0.84,0.22 l -1.01,0.7 C 302.66,415.24 265.97,370.44 264.25,315.52 q -0.02,-0.52 0.5,-0.52 h 85.03 q 0.59,0 0.75,0.57 c 14.44,52.29 85.88,52.4 100.12,-0.31 q 0.13,-0.49 0.64,-0.49 z"
       id="path66" />
    <path
       fill="#e9f7ff"
       d="m 509.29,314.77 h 26.96 q 0.54,0 0.53,0.53 c -0.38,31.57 -14.63,62.48 -36.49,84.63 -38.23,38.74 -94.78,51.2 -146.51,33.7 l 1.01,-0.7 q 0.38,-0.26 0.84,-0.22 c 75.14,7.31 143.64,-42.36 153.66,-117.94 z"
       id="path68" />
  </g>
</svg>
